<svg xmlns="http://www.w3.org/2000/svg" width="1200" height="630" viewBox="0 0 1200 630" role="img" aria-labelledby="title desc">
  <title id="title">Anti-AI Slop</title>
  <desc id="desc">Evidence-backed review pack for generic, template-like, and low-specificity outputs.</desc>
  <defs>
    <linearGradient id="bg" x1="0" y1="0" x2="1" y2="1">
      <stop offset="0" stop-color="#fbfcfe"/>
      <stop offset="1" stop-color="#eef3f7"/>
    </linearGradient>
    <filter id="shadow" x="-20%" y="-20%" width="140%" height="140%">
      <feDropShadow dx="0" dy="8" stdDeviation="10" flood-color="#0f172a" flood-opacity="0.12"/>
    </filter>
  </defs>
  <style>
    .title{font:700 54px Arial,Helvetica,sans-serif;fill:#111827}
    .subtitle{font:400 25px Arial,Helvetica,sans-serif;fill:#334155}
    .chip{font:700 17px Arial,Helvetica,sans-serif;fill:#7c3aed}
    .metric-value{font:700 36px Arial,Helvetica,sans-serif;fill:#111827}
    .metric-label{font:600 15px Arial,Helvetica,sans-serif;fill:#64748b;text-transform:uppercase}
    .pipeline-label{font:700 16px Arial,Helvetica,sans-serif;fill:#1f2937}
    .footer{font:600 15px Arial,Helvetica,sans-serif;fill:#64748b}
  </style>
  <rect width="1200" height="630" rx="0" fill="url(#bg)"/>
  <rect x="52" y="52" width="1096" height="526" rx="22" fill="#ffffff" stroke="#d8e1ea" filter="url(#shadow)"/>
  <rect x="52" y="52" width="10" height="526" fill="#7c3aed"/>
  <g transform="translate(92 98)">
  <text x="0" y="0" class="title">Anti-AI Slop</text>
  <text x="0" y="74" class="subtitle">Evidence-backed review pack for generic, template-like, and low-specificity</text>
  <text x="0" y="106" class="subtitle">outputs.</text>
  </g>
  <g class="teaser-chips">    <g class="chip-badge" transform="translate(92 248)">
      <rect width="140" height="34" rx="17" fill="#7c3aed" opacity="0.1"/>
      <text x="18" y="23" class="chip">output quality</text>
    </g>
    <g class="chip-badge" transform="translate(242 248)">
      <rect width="140" height="34" rx="17" fill="#7c3aed" opacity="0.1"/>
      <text x="18" y="23" class="chip">review contract</text>
    </g>
    <g class="chip-badge" transform="translate(412 248)">
      <rect width="140" height="34" rx="17" fill="#7c3aed" opacity="0.1"/>
      <text x="18" y="23" class="chip">validators</text>
    </g>
    <g class="chip-badge" transform="translate(582 248)">
      <rect width="140" height="34" rx="17" fill="#7c3aed" opacity="0.1"/>
      <text x="18" y="23" class="chip">guardrails</text>
    </g></g>
  <g class="teaser-metrics">    <g class="metric-card" transform="translate(92 308)">
      <rect width="238" height="96" rx="14" fill="#f8fafc" stroke="#d8e1ea"/>
      <rect width="5" height="96" rx="2.5" fill="#7c3aed"/>
      <text x="22" y="42" class="metric-value">100</text>
      <text x="22" y="70" class="metric-label">Coherence</text>
    </g>
    <g class="metric-card" transform="translate(356 308)">
      <rect width="238" height="96" rx="14" fill="#f8fafc" stroke="#d8e1ea"/>
      <rect width="5" height="96" rx="2.5" fill="#7c3aed"/>
      <text x="22" y="42" class="metric-value">0</text>
      <text x="22" y="70" class="metric-label">Findings</text>
    </g>
    <g class="metric-card" transform="translate(620 308)">
      <rect width="238" height="96" rx="14" fill="#f8fafc" stroke="#d8e1ea"/>
      <rect width="5" height="96" rx="2.5" fill="#7c3aed"/>
      <text x="22" y="42" class="metric-value">97</text>
      <text x="22" y="70" class="metric-label">Pack files</text>
    </g>
    <g class="metric-card" transform="translate(884 308)">
      <rect width="238" height="96" rx="14" fill="#f8fafc" stroke="#d8e1ea"/>
      <rect width="5" height="96" rx="2.5" fill="#7c3aed"/>
      <text x="22" y="42" class="metric-value">11</text>
      <text x="22" y="70" class="metric-label">Dimensions</text>
    </g></g>
  <g class="teaser-pipeline" aria-label="Pipeline">    <g class="pipeline-node" transform="translate(92 446)">
      <rect width="154" height="62" rx="13" fill="#ffffff" stroke="#7c3aed" stroke-width="2"/>
      <circle cx="18" cy="18" r="5" fill="#7c3aed"/>
      <text x="77" y="39" text-anchor="middle" class="pipeline-label">contract</text>
    </g>
    <path class="pipeline-connector" d="M 248 477 L 260 477" stroke="#7c3aed" stroke-width="3" stroke-linecap="round"/>
    <path class="pipeline-connector-arrow" d="M 253 472 L 260 477 L 253 482" fill="none" stroke="#7c3aed" stroke-width="3" stroke-linecap="round" stroke-linejoin="round"/>
    <g class="pipeline-node" transform="translate(264 446)">
      <rect width="154" height="62" rx="13" fill="#ffffff" stroke="#7c3aed" stroke-width="2"/>
      <circle cx="18" cy="18" r="5" fill="#7c3aed"/>
      <text x="77" y="39" text-anchor="middle" class="pipeline-label">classify</text>
    </g>
    <path class="pipeline-connector" d="M 420 477 L 432 477" stroke="#7c3aed" stroke-width="3" stroke-linecap="round"/>
    <path class="pipeline-connector-arrow" d="M 425 472 L 432 477 L 425 482" fill="none" stroke="#7c3aed" stroke-width="3" stroke-linecap="round" stroke-linejoin="round"/>
    <g class="pipeline-node" transform="translate(436 446)">
      <rect width="154" height="62" rx="13" fill="#ffffff" stroke="#7c3aed" stroke-width="2"/>
      <circle cx="18" cy="18" r="5" fill="#7c3aed"/>
      <text x="77" y="39" text-anchor="middle" class="pipeline-label">design gate</text>
    </g>
    <path class="pipeline-connector" d="M 592 477 L 604 477" stroke="#7c3aed" stroke-width="3" stroke-linecap="round"/>
    <path class="pipeline-connector-arrow" d="M 597 472 L 604 477 L 597 482" fill="none" stroke="#7c3aed" stroke-width="3" stroke-linecap="round" stroke-linejoin="round"/>
    <g class="pipeline-node" transform="translate(608 446)">
      <rect width="154" height="62" rx="13" fill="#ffffff" stroke="#7c3aed" stroke-width="2"/>
      <circle cx="18" cy="18" r="5" fill="#7c3aed"/>
      <text x="77" y="39" text-anchor="middle" class="pipeline-label">modality checks</text>
    </g>
    <path class="pipeline-connector" d="M 764 477 L 776 477" stroke="#7c3aed" stroke-width="3" stroke-linecap="round"/>
    <path class="pipeline-connector-arrow" d="M 769 472 L 776 477 L 769 482" fill="none" stroke="#7c3aed" stroke-width="3" stroke-linecap="round" stroke-linejoin="round"/>
    <g class="pipeline-node" transform="translate(780 446)">
      <rect width="154" height="62" rx="13" fill="#ffffff" stroke="#7c3aed" stroke-width="2"/>
      <circle cx="18" cy="18" r="5" fill="#7c3aed"/>
      <text x="77" y="39" text-anchor="middle" class="pipeline-label">fixes</text>
    </g>
    <path class="pipeline-connector" d="M 936 477 L 948 477" stroke="#7c3aed" stroke-width="3" stroke-linecap="round"/>
    <path class="pipeline-connector-arrow" d="M 941 472 L 948 477 L 941 482" fill="none" stroke="#7c3aed" stroke-width="3" stroke-linecap="round" stroke-linejoin="round"/>
    <g class="pipeline-node" transform="translate(952 446)">
      <rect width="154" height="62" rx="13" fill="#ffffff" stroke="#7c3aed" stroke-width="2"/>
      <circle cx="18" cy="18" r="5" fill="#7c3aed"/>
      <text x="77" y="39" text-anchor="middle" class="pipeline-label">validate</text>
    </g></g>
  <text x="92" y="548" class="footer">Spec-backed README teaser generated by mdpr-skill</text>
</svg>
